# xmcd CD database file
#
# Track frame offsets:
#	150
#	18796
#	37154
#	49361
#	76150
#	91123
#	108860
#	139436
#	171576
#	194305
#
# Disc length: 3046 seconds
#
# Revision: 0
# Processed by: cddbd v1.5.1PL2 Copyright (c) Steve Scherf et al.
# Submitted via: CDex 1.51
#
DISCID=820be40a
DTITLE=SHAWN MONTERO - NEVER LET ME GO
DYEAR=2002
DGENRE=Jazz
TTITLE0=As long I live
TTITLE1=The lamp is low
TTITLE2=I'm old fashioned
TTITLE3=Isn't a pity?
TTITLE4=On green dolphin street
TTITLE5=Never let me go
TTITLE6=I have the feeling
TTITLE7=Where do you go?
TTITLE8=The good life
TTITLE9=Where do you start?
EXTD=YEAR: 2002
EXTT0=
EXTT1=
EXTT2=
EXTT3=
EXTT4=
EXTT5=
EXTT6=
EXTT7=
EXTT8=
EXTT9=
PLAYORDER=
